<?xml version="1.0" encoding="UTF-8" standalone="no"?>
<!-- Created with Inkscape (http://www.inkscape.org/) -->

<svg
   xmlns:dc="http://purl.org/dc/elements/1.1/"
   xmlns:cc="http://creativecommons.org/ns#"
   xmlns:rdf="http://www.w3.org/1999/02/22-rdf-syntax-ns#"
   xmlns:svg="http://www.w3.org/2000/svg"
   xmlns="http://www.w3.org/2000/svg"
   xmlns:sodipodi="http://sodipodi.sourceforge.net/DTD/sodipodi-0.dtd"
   xmlns:inkscape="http://www.inkscape.org/namespaces/inkscape"
   width="744.09448819"
   height="1052.3622047"
   id="svg2"
   version="1.1"
   inkscape:version="0.48.4 r9939"
   sodipodi:docname="krystian.png">
  <defs
     id="defs4">
    <inkscape:path-effect
       effect="skeletal"
       id="path-effect3028"
       is_visible="true"
       pattern="M 0,5 C 0,2.24 2.24,0 5,0 7.76,0 10,2.24 10,5 10,7.76 7.76,10 5,10 2.24,10 0,7.76 0,5 z"
       copytype="single_stretched"
       prop_scale="1"
       scale_y_rel="false"
       spacing="0"
       normal_offset="0"
       tang_offset="0"
       prop_units="false"
       vertical_pattern="false"
       fuse_tolerance="0" />
    <inkscape:path-effect
       effect="spiro"
       id="path-effect3026"
       is_visible="true" />
  </defs>
  <sodipodi:namedview
     id="base"
     pagecolor="#ffffff"
     bordercolor="#666666"
     borderopacity="1.0"
     inkscape:pageopacity="0.0"
     inkscape:pageshadow="2"
     inkscape:zoom="0.7"
     inkscape:cx="821.82263"
     inkscape:cy="437.43164"
     inkscape:document-units="px"
     inkscape:current-layer="layer2"
     showgrid="false"
     inkscape:object-paths="false"
     inkscape:window-width="1366"
     inkscape:window-height="716"
     inkscape:window-x="-8"
     inkscape:window-y="-8"
     inkscape:window-maximized="1" />
  <metadata
     id="metadata7">
    <rdf:RDF>
      <cc:Work
         rdf:about="">
        <dc:format>image/svg+xml</dc:format>
        <dc:type
           rdf:resource="http://purl.org/dc/dcmitype/StillImage" />
        <dc:title></dc:title>
      </cc:Work>
    </rdf:RDF>
  </metadata>
  <g
     inkscape:label="Layer 1"
     inkscape:groupmode="layer"
     id="layer1" />
  <g
     inkscape:groupmode="layer"
     id="layer2"
     inkscape:label="Warstwa">
    <path
       style="fill:#ffe6d5"
       d="m 182.02031,156.48688 c 96.9798,-75.448112 329.59684,-69.090722 405.71421,-5.71429 113.12027,94.18561 5.66846,422.7691 -88.57143,502.8572 -94.23989,80.0881 -172.14137,52.22273 -231.42849,2.85714 C 137.78649,548.28527 66.7784,246.14249 182.02031,156.48688 z"
       id="rect3022"
       inkscape:connector-curvature="0"
       sodipodi:nodetypes="sszss" />
    <path
       style="fill:#000000;fill-rule:evenodd;stroke:none"
       d="m 111.42857,203.79075 c 0,0 0,0 0,0 0,0 0,0 0,0 0,0 0,0 0,0 0,0 0,0 0,0 z"
       id="path3024" />
    <path
       style="fill:#00aad4"
       d="m 221.81725,332.18887 c 3.31526,-10.69507 23.84716,-18.03211 34.90013,-19.82298 17.20658,-2.78791 39.52164,0.45199 50.3537,14.10869 7.14467,9.00777 13.5632,23.47019 1.50035,34.45903 -12.06284,10.98884 -36.16661,-6.55873 -51.57214,-15.49891 -15.40554,-8.94018 -38.94432,-1.10866 -35.18204,-13.24583 z"
       id="rect3056"
       inkscape:connector-curvature="0"
       sodipodi:nodetypes="ssszzs" />
    <path
       style="fill:#552200"
       d="m 205.58844,311.26978 c 16.03132,-48.69155 140.30597,-1.56397 140.30597,-1.56397 0,0 34.41113,13.85606 8.63422,17.20355 -25.77693,3.34748 -65.49678,-20.87459 -90.65924,-25.02348 -25.16247,-4.14889 -62.9108,23.44603 -58.28095,9.3839 z"
       id="rect3077"
       inkscape:connector-curvature="0"
       sodipodi:nodetypes="sczzs" />
    <path
       style="fill:#552200"
       d="m 395.22063,318.26819 c 16.03132,-48.69155 140.30597,-1.56397 140.30597,-1.56397 0,0 34.41113,13.85606 8.63422,17.20355 -25.77693,3.34748 -65.49678,-20.87459 -90.65924,-25.02348 -25.16247,-4.14889 -62.9108,23.44603 -58.28095,9.3839 z"
       id="rect3077-9"
       inkscape:connector-curvature="0"
       sodipodi:nodetypes="sczzs" />
    <path
       style="fill:#ffffff"
       d="m 264.92757,507.08376 c -11.67569,33.5811 138.33581,104.13789 209.49772,29.70307 71.16193,-74.43483 -22.23408,72.46307 -53.11209,85.80889 -30.4035,13.14073 -60.49066,18.32174 -97.37218,-19.80205 -36.88153,-38.12378 -59.01345,-95.70991 -59.01345,-95.70991 z"
       id="rect3134"
       inkscape:connector-curvature="0"
       sodipodi:nodetypes="czszc" />
    <path
       style="fill:#552200"
       clip-path="none"
       d="m 146.24988,472.77709 c -0.57347,15.31997 31.63178,25.51037 40.70203,30.94936 16.29333,9.77031 26.52098,6.45792 43.38206,5.98572 26.97039,-0.75531 105.61584,-52.05521 125.90084,-27.34623 24.56359,29.92071 2.03792,5.11447 34.69509,-3.8058 42.41632,-11.58597 96.44236,21.4548 124.02568,31.5926 10.55771,3.88032 19.83966,13.47657 36.38744,11.33911 29.85925,-3.85688 92.41897,-14.03822 72.19496,-12.34709 -7.52233,0.62901 -35.61916,24.63455 -61.10523,31.31256 -28.25474,7.40347 -67.53325,20.19229 -101.8237,17.19089 -32.03625,-2.8041 -90.89322,-32.34318 -90.89322,-32.34318 0,0 -75.95553,40.36812 -116.40895,36.35863 -28.63397,-2.83802 -55.9547,-20.51894 -75.74227,-41.40939 -11.80703,-12.4651 -31.31473,-47.47718 -31.31473,-47.47718 z"
       id="rect3150"
       inkscape:connector-curvature="0"
       sodipodi:nodetypes="cssssssssscssc" />
    <path
       style="fill:#552200"
       d="m 121.22276,51.300996 c 30.77035,30.682622 66.83131,46.151326 107.7739,50.819224 31.24366,3.56211 -61.59813,-47.142692 -26.89596,-52.237379 47.81531,-7.019852 126.6887,44.673704 207.85178,47.143971 22.83599,0.695033 -55.84566,-41.795128 -29.08686,-41.068746 27.8234,0.755281 85.06174,-20.954014 131.4635,-6.450011 49.09773,15.346697 86.66703,67.250865 87.09299,79.574685 0,0 28.55529,-5.52814 34.89218,8.02397 6.26126,13.39037 25.61355,75.65404 25.42242,124.29057 -0.1292,32.8766 -23.56507,59.35252 -25.33249,66.66004 -2.38737,9.87071 -32.8755,-88.86796 -32.8755,-88.86796 0,0 -372.68418,126.44488 -484.85663,33.33503 -40.890765,-33.94178 4.55067,-221.223394 4.55067,-221.223394 z"
       id="rect3153"
       inkscape:connector-curvature="0"
       sodipodi:nodetypes="cssssssssscsc" />
    <path
       sodipodi:type="arc"
       style="fill:#ffffff"
       id="path3172"
       sodipodi:cx="278.80209"
       sodipodi:cy="352.83154"
       sodipodi:rx="6.0609155"
       sodipodi:ry="5.5558391"
       d="m 284.86301,352.83154 a 6.0609155,5.5558391 0 1 1 -12.12183,0 6.0609155,5.5558391 0 1 1 12.12183,0 z"
       transform="matrix(1.5833334,0,0,1.5454545,-148.99749,-195.48402)" />
    <path
       style="fill:#00aad4"
       d="m 504.14635,340.51071 c -3.31526,-10.69507 -23.84716,-18.03211 -34.90013,-19.82298 -17.20658,-2.78791 -39.52164,0.45199 -50.3537,14.10869 -7.14467,9.00777 -13.5632,23.47019 -1.50035,34.45903 12.06284,10.98884 36.16661,-6.55873 51.57214,-15.49891 15.40554,-8.94018 38.94432,-1.10866 35.18204,-13.24583 z"
       id="rect3056-8"
       inkscape:connector-curvature="0"
       sodipodi:nodetypes="ssszzs" />
    <path
       sodipodi:type="arc"
       style="fill:#ffffff"
       id="path3172-8"
       sodipodi:cx="278.80209"
       sodipodi:cy="352.83154"
       sodipodi:rx="6.0609155"
       sodipodi:ry="5.5558391"
       d="m 284.86301,352.83154 a 6.0609155,5.5558391 0 1 1 -12.12183,0 6.0609155,5.5558391 0 1 1 12.12183,0 z"
       transform="matrix(1.5833334,0,0,1.5454545,-11.111679,-190.93833)" />
    <path
       style="fill:#ffaaaa"
       d="m 533.01118,517.5371 c -4.32143,-1.85783 -20.39286,-8.94852 -35.71429,-15.75707 -35.38368,-15.72386 -51.55717,-21.36136 -70.45822,-24.55919 -12.88828,-2.18054 -16.78592,-2.31111 -26.5422,-0.88911 -6.28956,0.91671 -13.95659,2.95288 -17.03786,4.52483 -5.26229,2.68461 -11.88166,9.1556 -13.59247,13.28772 -0.5526,1.33472 -1.3855,1.05559 -3.03953,-1.01864 -7.59603,-9.52574 -15.71657,-16.42528 -20.35654,-17.29574 -13.6589,-2.56243 -28.61789,1.29953 -72.5446,18.7288 -34.3106,13.61378 -42.44525,15.57301 -61.24483,14.75078 -13.29485,-0.58147 -13.83291,-0.7467 -32.83891,-10.08452 -14.68665,-7.21569 -19.81894,-10.45722 -21.39135,-13.51063 -3.50326,-6.8029 -14.88799,-44.34259 -20.0645,-66.16012 -9.80789,-41.33751 -12.87535,-66.83685 -12.88882,-107.14285 -0.0115,-34.43807 2.16691,-52.78146 9.27406,-78.09227 4.12673,-14.69661 13.59176,-37.62202 15.5327,-37.62202 0.53941,0 2.48301,1.59908 4.31911,3.55352 4.67837,4.9799 21.95755,16.69322 32.15968,21.80062 72.59251,36.34129 215.07471,44.67576 382.85714,22.39515 34.77879,-4.61843 47.14054,-7.17203 54.52917,-11.26423 l 5.95776,-3.29971 0.74597,3.05018 c 5.46272,22.33625 5.97757,77.64547 1.05099,112.90243 -7.41299,53.0507 -21.12843,105.81431 -40.0508,154.0763 -4.72635,12.05467 -6.68907,15.50058 -9.12712,16.02433 -7.87535,1.69177 -32.51225,5.04365 -36.84787,5.01321 -2.65624,-0.0186 -8.36524,-1.55394 -12.68667,-3.41177 z M 447.89405,366.40136 c 6.2213,-3.12718 13.65986,-7.16825 16.53013,-8.98018 6.99904,-4.4183 17.50134,-7.86518 23.99407,-7.87494 2.91897,-0.004 7.71793,-0.67746 10.66436,-1.49571 4.57123,-1.2695 5.35714,-2.07837 5.35714,-5.51367 0,-5.91401 -4.72571,-10.9422 -14.71696,-15.65894 -12.33044,-5.82105 -22.79788,-7.81243 -37.11511,-7.06097 -17.11711,0.89842 -28.98226,6.70452 -36.33663,17.78101 -9.62141,14.49088 -7.19386,30.05547 5.36103,34.37298 6.87199,2.36323 13.11359,1.03952 26.26197,-5.56958 l 0,0 z m -141.89161,-3.34508 c 5.24428,-2.71191 9.85337,-9.94732 9.86054,-15.47918 0.0143,-10.90042 -8.94704,-25.19007 -19.0868,-30.43618 -13.74061,-7.10911 -33.84178,-8.12125 -50.46496,-2.54104 -17.9008,6.00911 -26.09252,13.24569 -24.47887,21.6247 0.51435,2.67076 0.95919,2.79866 20.98905,6.03468 6.77023,1.09378 12.78093,3.57425 23.50814,9.70124 14.73858,8.41814 26.26457,13.17838 32.10973,13.26136 1.80687,0.0257 5.2103,-0.94886 7.56317,-2.16558 z m 241.59998,-29.27722 c 6.40259,-1.77818 7.47682,-3.21778 5.3569,-7.17888 -5.11068,-9.5494 -67.72711,-28.0905 -103.51957,-30.65276 -29.48276,-2.11057 -51.4273,6.81469 -54.49738,22.16514 -0.76925,3.84623 -0.49023,4.2988 2.65027,4.2988 1.93051,0 10.85015,-2.63152 19.82143,-5.84782 11.67807,-4.18672 19.35484,-6.03785 27.02568,-6.51683 11.47502,-0.71652 9.80122,-1.18526 59.28572,16.60294 21.906,7.87455 34.07465,9.8518 43.87695,7.12941 z m -188.51981,-7.15711 c 5.95697,-1.65433 7.07603,-5.11133 2.85714,-8.82633 -10.92806,-9.62286 -61.50088,-24.51807 -95.90776,-28.24772 -29.91652,-3.2429 -52.25253,3.23199 -59.50069,17.24839 -4.94224,9.55724 -0.27893,10.93376 15.95265,4.70894 14.26744,-5.47158 28.67829,-9.09478 36.1449,-9.08762 6.10892,0.006 16.7838,3.31687 55.09662,17.08918 22.10245,7.94517 35.0531,9.97674 45.35714,7.11516 l 0,0 z"
       id="path3228"
       inkscape:connector-curvature="0" />
    <path
       style="fill:#ffaaaa"
       d="m 370.86832,703.0054 c -30.8169,-4.03893 -54.1538,-12.73967 -79.28571,-29.56029 -46.14678,-30.8857 -85.77663,-80.63356 -115.58242,-145.09206 -4.1203,-8.91063 -7.24563,-16.44698 -6.94517,-16.74744 0.30046,-0.30046 2.8677,2.56315 5.70498,6.36358 6.30719,8.44823 24.65494,23.3335 37.79791,30.66491 21.97217,12.25651 43.94321,16.21994 65.35907,11.79035 6.2339,-1.2894 11.76147,-1.85197 12.28348,-1.25016 0.52202,0.60182 4.86463,6.88103 9.65026,13.95381 10.16847,15.02822 22.93482,30.06237 31.0176,36.52758 7.18256,5.74514 20.2968,11.96809 31.42857,14.91343 10.39053,2.74923 35.96769,3.09829 49.66476,0.6778 l 9.66477,-1.70791 24.47786,-32.70668 24.47786,-32.70668 8.88453,0 c 4.8865,0 14.59375,-0.98769 21.57167,-2.19487 14.88801,-2.57562 53.72314,-12.14691 65.7233,-16.19814 4.6011,-1.55332 8.58005,-2.6098 8.84213,-2.34773 0.26207,0.26207 -3.17553,7.76809 -7.6391,16.68004 -24.87428,49.66391 -49.84702,83.87375 -77.09635,105.61336 -24.7217,19.72307 -57.78007,36.11678 -82.85714,41.08907 -8.44874,1.67521 -31.04753,3.0369 -37.14286,2.23803 l 0,0 z"
       id="path3230"
       inkscape:connector-curvature="0" />
    <path
       style="fill:#ffaaaa"
       d="m 530.15404,515.45393 c -5.10715,-2.21265 -21.24266,-9.21223 -35.85672,-15.55465 -45.01757,-19.53737 -67.5348,-25.64878 -89.14328,-24.19444 -15.59932,1.0499 -23.56547,4.11644 -30.6448,11.7966 l -5.81439,6.30787 -8.51978,-8.51978 c -4.68589,-4.68589 -10.21266,-8.94467 -12.28173,-9.46397 -6.42483,-1.61253 -25.09456,0.57651 -36.31073,4.25747 -5.89286,1.93394 -22.7897,8.08425 -37.54854,13.66737 -34.59484,13.08687 -39.82425,14.37898 -58.10875,14.3578 -13.979,-0.0161 -15.85591,-0.36623 -26.21582,-4.88912 -6.13736,-2.67941 -15.56516,-7.48942 -20.95067,-10.6889 l -9.79184,-5.81722 -5.05421,-15.36509 c -11.62406,-35.33781 -21.31386,-76.26426 -25.45372,-107.50794 -2.4661,-18.6117 -2.42874,-84.53226 0.0559,-98.57143 3.20182,-18.09185 8.6638,-38.25894 13.87066,-51.21426 7.19327,-17.89772 6.48195,-17.32697 13.9587,-11.20034 32.36109,26.51748 79.36038,41.98798 153.09547,50.39358 31.39557,3.57902 118.75102,4.35835 160.71429,1.43381 79.32355,-5.52829 148.16233,-15.40956 156.6969,-22.49263 1.06897,-0.88716 2.16724,-1.3607 2.44061,-1.05231 1.77177,1.99877 3.89857,23.08388 4.66763,46.27501 1.32484,39.95115 -2.83613,78.11224 -13.76719,126.26137 -10.07488,44.37788 -31.13262,107.1435 -37.20567,110.89685 -2.45611,1.51796 -27.23678,4.93438 -35.68943,4.92036 -5.44315,-0.009 -10.71004,-1.24903 -17.14285,-4.03601 l 0,0 z M 456.10949,362.55456 c 15.83995,-8.18335 21.7741,-10.48026 31.42858,-12.16489 16.24618,-2.83484 16.90168,-3.16753 16.90168,-8.57817 0,-16.14573 -40.60033,-27.71504 -67.78971,-19.31709 -25.84593,7.98299 -36.21935,40.1997 -15.90287,49.38956 7.32558,3.31361 14.61,1.39181 35.36232,-9.32941 l 0,0 z m -145.78738,-2.83228 c 4.85256,-4.85257 5.54621,-6.37718 5.54621,-12.19035 0,-10.63504 -7.34957,-23.0872 -17.69935,-29.98745 -3.05608,-2.03751 -5.03673,-3.70455 -4.40148,-3.70455 0.63526,0 10.20712,2.97507 21.27079,6.61128 21.8846,7.19264 35.59817,9.15121 44.19936,6.31256 8.06473,-2.6616 6.59304,-8.48639 -3.4573,-13.68363 -14.94435,-7.72802 -61.5727,-20.48149 -86.23056,-23.58519 -30.97763,-3.89917 -56.35146,2.74803 -62.86201,16.468 -5.36086,11.29717 -1.74093,11.8224 24.35962,3.5344 24.12223,-7.65979 34.12794,-7.54244 53.52559,0.62779 4.53961,1.91207 3.8973,1.99665 -9.55491,1.25821 -16.50303,-0.90591 -25.37822,0.68664 -38.7185,6.94759 -10.50491,4.93023 -15.03278,9.98928 -14.42937,16.12211 0.4205,4.27377 0.63395,4.3816 14.71241,7.43236 11.01284,2.38646 18.98836,5.41962 34.8122,13.23939 25.46868,12.58601 30.36097,13.16381 38.9273,4.59748 l 0,0 z m 239.06126,-25.86091 c 9.86277,-3.74982 3.7188,-11.28083 -15.0957,-18.50368 -28.07289,-10.77712 -71.32003,-20.08919 -93.29825,-20.08919 -25.45474,0 -46.52257,10.83103 -46.54433,23.92857 -0.007,4.57233 4.11369,4.21592 23.23536,-2.00936 10.4497,-3.40202 19.79244,-5.45218 26.79106,-5.879 10.23941,-0.62446 11.95687,-0.23947 36.42857,8.16589 14.12539,4.85168 30.82539,10.35588 37.1111,12.23154 12.06624,3.60057 25.19787,4.5027 31.37219,2.15523 z"
       id="path3232"
       inkscape:connector-curvature="0" />
    <path
       style="fill:#e9afaf"
       d="m 504.59431,504.49083 c -40.43274,-17.44735 -58.36294,-23.94467 -74.5544,-27.01615 -26.06592,-4.94461 -46.03307,-0.93987 -56.87377,11.40702 l -4.57452,5.21008 -7.16348,-7.27737 c -10.57422,-10.74231 -13.91759,-12.08618 -27.65673,-11.1166 -11.98967,0.84613 -23.79299,4.58107 -73.61737,23.29495 l -22.14286,8.31678 -20.27804,0.0509 -20.27805,0.0509 -18.09271,-9.21763 c -9.95099,-5.0697 -18.93667,-10.53399 -19.96818,-12.14286 -3.67475,-5.73161 -16.46237,-48.83586 -22.86072,-77.05843 -12.32807,-54.37798 -14.23583,-117.63208 -4.82708,-160.04758 4.03553,-18.19254 13.90963,-46.22209 17.83391,-50.62503 0.25501,-0.28611 5.49148,3.26839 11.63662,7.89889 48.45643,36.51301 128.29424,52.19592 254.69139,50.03018 50.62156,-0.86736 83.15717,-3.05621 132.14286,-8.88997 46.72063,-5.56401 66.16461,-9.12144 75.49559,-13.81251 3.02255,-1.51957 5.7174,-2.54102 5.98852,-2.26989 3.65106,3.65105 6.07352,65.37283 3.63295,92.5635 -4.4809,49.92205 -17.44346,107.05508 -36.13935,159.28571 -8.73862,24.41307 -11.73558,30.47834 -15.82182,32.0203 -4.47266,1.68777 -25.8209,4.4108 -34.45446,4.39476 -6.06053,-0.0114 -13.08133,-2.51996 -42.1183,-15.04987 l 0,0 z M 433.72547,372.29566 c 3.14285,-0.84059 13.85481,-5.64539 23.80434,-10.67735 14.1678,-7.16533 20.67234,-9.5996 30,-11.2272 15.8806,-2.77105 16.90994,-3.25437 16.90994,-7.93994 0,-17.7418 -46.77731,-29.72816 -71.55306,-18.33498 -14.81384,6.81217 -23.8476,20.27152 -22.375,33.33637 0.81445,7.22572 3.92393,11.54431 10.35663,14.38378 5.28597,2.33327 5.78409,2.35107 12.85715,0.45932 l 0,0 z m -127.90003,-8.85475 c 5.21177,-2.63718 10.0451,-10.63638 10.02893,-16.59795 -0.0272,-10.01745 -10.35668,-25.65887 -20.70033,-31.34541 -5.24682,-2.88449 0.0143,-1.70467 15.07645,3.38142 26.9215,9.09024 42.12139,11.34506 49.91089,7.40402 9.25074,-4.68035 1.8022,-11.53217 -21.43411,-19.71696 -34.13648,-12.02428 -73.12719,-19.47298 -93.72896,-17.90579 -6.38236,0.48551 -14.97121,1.97015 -19.08633,3.29918 -9.72703,3.14148 -20.05583,12.38751 -20.45156,18.30763 -0.41588,6.22145 2.84632,6.13071 24.97278,-0.69459 22.84602,-7.04726 30.14834,-7.39273 46.52655,-2.20119 6.48214,2.0547 11.78572,4.00238 11.78572,4.32819 0,0.3258 -6.26786,0.21487 -13.92858,-0.24652 -10.35251,-0.62351 -16.19421,-0.25582 -22.75314,1.43213 -18.42938,4.74284 -30.46114,12.90363 -30.46114,20.66089 0,4.97382 0.25297,5.10346 17.15784,8.793 8.45174,1.84462 17.72445,5.3555 28.73207,10.87865 24.84987,12.46865 30.78762,14.05139 38.35292,10.2233 l 0,0 z m 246.73518,-31.39532 c 5.22516,-5.22516 -5.69844,-12.55959 -30.97801,-20.79955 -41.52652,-13.53572 -78.79719,-18.76909 -99.25384,-13.93677 -16.54345,3.90793 -27.88902,12.88074 -27.88902,22.05642 0,4.28586 3.53573,3.96122 22.14286,-2.03311 9.99821,-3.22094 19.89878,-5.36338 27.21804,-5.88987 11.46826,-0.82493 11.60274,-0.79386 43.57143,10.06513 17.63721,5.99093 34.6391,11.51131 37.78196,12.2675 8.1814,1.9685 24.75431,0.92251 27.40658,-1.72975 z"
       id="path3234"
       inkscape:connector-curvature="0" />
    <path
       style="fill:#e9afaf"
       d="m 538.72547,517.43561 c -3.53572,-1.00711 -20.57143,-7.736 -37.85715,-14.95311 -54.9988,-22.963 -72.84827,-28.03166 -94.82397,-26.92684 -14.43853,0.7259 -23.85241,4.31532 -31.91234,12.16788 l -5.30776,5.1712 -6.96767,-6.51744 c -9.31347,-8.71167 -14.37626,-11.11097 -23.41731,-11.09766 -12.72902,0.0187 -36.48789,7.3106 -90.24103,27.69597 -8.92077,3.38312 -11.68367,3.72146 -30.38886,3.72146 l -20.57591,0 -11.754,-5.90464 c -6.4647,-3.24756 -15.0265,-7.99543 -19.02621,-10.55083 -7.16795,-4.57957 -7.34698,-4.87126 -12.48761,-20.3463 -7.02788,-21.15627 -17.35086,-61.63876 -20.85114,-81.76966 -7.97933,-45.89093 -8.87232,-97.47994 -2.27878,-131.6485 3.78216,-19.59967 16.21733,-56.92293 18.96528,-56.92293 0.4449,0 6.33134,3.78025 13.08097,8.40055 47.79341,32.71585 106.87114,46.09493 212.98634,48.23411 64.13865,1.29297 119.3559,-1.73594 186.64803,-10.23846 31.53103,-3.98402 46.40194,-6.79782 58.02904,-10.97994 4.53668,-1.63179 8.5616,-2.65378 8.94429,-2.2711 1.69254,1.69255 3.4507,31.47317 3.48303,58.9977 0.0493,41.97153 -4.93914,78.2043 -17.79983,129.28571 -9.09166,36.11119 -26.8895,87.42769 -31.83574,91.79198 -4.73915,4.18154 -35.14265,7.35798 -44.61167,4.66085 l 0,0 z m -83.66626,-154.1946 c 11.51413,-5.21648 26.39767,-10.78194 33.07453,-12.36768 16.1783,-3.84235 16.30601,-3.90733 16.30601,-8.29695 0,-7.60288 -8.14803,-14.55734 -22.85714,-19.50891 -5.7701,-1.94241 -12.22094,-2.66274 -24.28572,-2.71183 -14.83971,-0.0604 -17.18845,0.29452 -24.28571,3.66961 -23.0551,10.96383 -30.5979,36.59542 -13.85921,47.09573 6.62155,4.15378 11.90478,2.99435 35.90724,-7.87997 l 0,0 z m -147.21214,-0.9558 c 11.44047,-8.99907 10.14908,-23.41962 -3.48426,-38.90793 -3.23409,-3.67411 -5.17543,-6.68021 -4.3141,-6.68021 0.86134,0 9.1124,2.3102 18.3357,5.13378 21.68183,6.63757 37.93776,8.02971 43.1982,3.69942 2.89393,-2.38221 3.27961,-3.43114 2.03317,-5.52941 -5.27846,-8.88574 -50.34771,-23.90044 -89.30507,-29.75174 -16.82266,-2.52673 -27.18777,-2.67437 -39.3283,-0.56019 -15.69265,2.73276 -31.53965,15.02994 -29.48646,22.88133 0.68331,2.61299 1.50411,2.88243 6.39715,2.1 3.08729,-0.49367 12.47684,-2.86365 20.86567,-5.26662 17.8852,-5.12318 30.29036,-5.65262 42.6289,-1.81935 l 8.3378,2.59034 -15.71429,0.93582 c -17.61168,1.04881 -26.29542,3.58291 -37.50918,10.946 -7.38978,4.85223 -10.13625,9.40899 -8.39927,13.9355 0.97069,2.52956 3.51929,3.59384 18.36936,7.67092 6.06778,1.6659 20.21064,7.17793 31.42856,12.24894 22.70114,10.26195 29.47589,11.46312 35.94642,6.3734 l 0,0 z m 239.75535,-28.50615 c 6.35695,-1.76551 7.47545,-3.22035 5.42353,-7.05439 -3.89847,-7.28436 -38.61438,-19.7753 -76.15638,-27.40142 -21.55796,-4.37918 -49.78912,-4.64393 -60.28696,-0.56536 -14.96119,5.81265 -22.14286,12.19736 -22.14286,19.68562 0,5.0738 2.5072,5.1376 18.63319,0.47409 33.34708,-9.64369 35.98924,-9.48364 79.93824,4.84226 36.13891,11.78008 43.43171,13.11853 54.59124,10.0192 l 0,0 z"
       id="path3236"
       inkscape:connector-curvature="0" />
    <path
       style="fill:#e9afaf"
       d="m 538.72547,517.51487 c -3.53572,-0.99821 -21.34785,-7.97817 -39.58252,-15.51101 -53.24017,-21.99385 -74.39046,-27.90559 -93.92824,-26.25405 -13.44596,1.1366 -21.40287,4.1106 -29.68702,11.09589 l -6.82991,5.75907 -9.47191,-7.86209 c -10.50483,-8.71942 -15.77756,-10.36524 -28.02809,-8.74858 -9.02187,1.19058 -34.4919,9.28351 -67.95525,21.59233 l -24.76865,9.11064 -20.62021,0 -20.6202,0 -11.754,-5.90464 c -6.4647,-3.24756 -14.99791,-7.97715 -18.96268,-10.51019 -7.07025,-4.5171 -7.30913,-4.90437 -12.43939,-20.16678 -25.58609,-76.11805 -34.20855,-156.41447 -23.09012,-215.02609 2.56005,-13.49549 13.96698,-49.15534 17.02679,-53.22838 1.92468,-2.56202 2.79176,-2.19209 17.80076,7.59456 39.21712,25.5716 80.25538,37.43403 152.15722,43.98226 31.60146,2.878 125.36712,3.21626 160.75342,0.57991 61.69008,-4.59602 119.94108,-12.23506 138.85227,-18.2091 6.27833,-1.98332 11.72055,-3.30062 12.09384,-2.92734 1.65994,1.65995 3.26526,29.93001 3.29929,58.1015 0.0389,32.17499 -2.30826,56.75096 -8.52719,89.28572 -9.13556,47.79326 -33.82226,126.8281 -41.55866,133.05064 -2.05294,1.65123 -15.68437,4.07992 -29.87384,5.32256 -4.32143,0.37846 -10.75,-0.12857 -14.28571,-1.12683 l 0,0 z m -105,-145.79343 c 2.35714,-0.52551 12.71051,-4.72638 23.00748,-9.33528 10.29697,-4.60889 24.08742,-9.74978 30.64543,-11.42418 14.62513,-3.73412 17.06137,-4.98178 17.06137,-8.7375 0,-8.86282 -15.60603,-18.36879 -34.88456,-21.24894 -27.2574,-4.07215 -48.56318,4.62906 -56.49777,23.07352 -3.58577,8.33535 -3.3618,15.9839 0.64723,22.10245 2.58294,3.94207 10.15494,7.86352 13.59224,7.03926 1.17858,-0.28263 4.07143,-0.94381 6.42858,-1.46933 l 0,0 z m -127.02852,-9.14677 c 4.74684,-2.89461 9.17992,-10.68541 9.15742,-16.0935 -0.0213,-5.13194 -6.23892,-17.36219 -12.15632,-23.91205 -2.91777,-3.22963 -4.63087,-5.87205 -3.80687,-5.87205 0.82399,0 9.41666,2.25908 19.0948,5.02017 22.19606,6.33235 34.58794,7.66825 40.89193,4.40834 2.50901,-1.29747 4.56184,-2.98537 4.56184,-3.75091 0,-9.50561 -55.13276,-27.82823 -99.32762,-33.01017 -24.02475,-2.81696 -42.76547,1.48178 -54.50026,12.50125 -3.48164,3.26942 -4.74355,5.68694 -4.74355,9.08756 0,4.57127 0.0716,4.62041 5.35715,3.67817 2.94642,-0.52524 12.42857,-2.91561 21.07142,-5.31193 18.32608,-5.08109 30.66953,-5.58409 43.09078,-1.75596 l 8.3378,2.56964 -14.29906,0.93775 c -17.36842,1.13904 -28.09222,4.09027 -37.26878,10.2565 -8.28286,5.56571 -12.02965,11.31375 -9.74074,14.94352 0.9031,1.43216 7.18607,4.07659 15.07384,6.34443 7.43891,2.13878 19.59919,6.60321 27.02287,9.92094 29.78529,13.31143 34.84232,14.51484 42.18335,10.0383 l 0,0 z m 243.93234,-29.55498 c 3.35132,-1.28602 2.95946,-5.28198 -0.87081,-8.88033 -7.202,-6.76593 -43.43831,-18.82183 -74.03181,-24.63055 -18.37696,-3.48919 -45.21292,-4.15955 -55.62633,-1.38954 -3.50619,0.93266 -9.44459,3.35516 -13.19646,5.38334 -9.51371,5.14289 -15.91339,16.24624 -10.55013,18.30432 1.0527,0.40396 10.74097,-1.54761 21.5295,-4.33682 28.86966,-7.4638 32.83776,-7.25617 66.60099,3.48487 40.99657,13.04218 46.64485,14.42441 55.78791,13.65225 4.3864,-0.37044 9.04712,-1.08484 10.35714,-1.58754 l 0,0 z"
       id="path3246"
       inkscape:connector-curvature="0" />
    <path
       style="fill:#ffe6d5"
       d="m 358.62978,700.37623 c -41.98343,-8.83342 -75.78596,-28.86919 -111.0904,-65.8466 -24.92637,-26.10755 -43.02072,-52.15593 -62.50086,-89.97542 -14.24491,-27.65561 -14.50997,-29.14893 -3.28299,-18.49609 18.25905,17.32528 39.78522,29.7387 59.72296,34.44021 9.06089,2.13665 31.44047,1.97189 43.67555,-0.32154 4.09652,-0.76789 4.79021,-0.0911 15.71428,15.33069 21.11416,29.80744 37.2791,42.99087 60.17722,49.0779 13.90701,3.69691 55.94014,2.82889 61.01311,-1.25998 1.11113,-0.89558 12.64796,-15.83649 25.63742,-33.20201 l 23.61717,-31.57368 14.77754,-0.79558 c 15.03186,-0.80927 30.66493,-3.98701 65.8671,-13.3888 10.81354,-2.88808 20.104,-4.80804 20.64544,-4.26659 1.19092,1.19091 -12.75104,28.77823 -24.67363,48.82235 -27.78221,46.7072 -57.35647,75.27281 -99.43155,96.04038 -24.6672,12.17531 -38.42803,15.90023 -61.79469,16.72714 -12.78584,0.45247 -21.65663,0.0379 -28.07367,-1.31238 l 0,0 z"
       id="path3248"
       inkscape:connector-curvature="0" />
    <path
       style="fill:#e9c6af"
       d="m 540.86832,518.25183 c -2.35714,-0.58659 -22.92857,-8.54195 -45.71428,-17.67857 -56.92035,-22.82395 -76.137,-27.59093 -96.3509,-23.90129 -10.58203,1.93154 -17.8601,5.30819 -25.05215,11.6229 l -5.05392,4.4374 -6.4637,-5.5176 c -8.89788,-7.59546 -17.45032,-11.94806 -23.45346,-11.93616 -9.02196,0.0179 -27.20413,5.24979 -64.1551,18.46063 l -36.24351,12.95793 -20.57075,0 -20.57075,0 -13.18574,-6.61464 C 159.81195,487.92134 159.70196,487.806 153.15345,467.6775 137.56073,419.7493 130.12144,382.12137 127.081,335.80297 c -1.94881,-29.68844 -0.31903,-59.73634 4.53092,-83.53544 2.89688,-14.21524 13.75554,-49.67582 16.87866,-51.62129 3.78854,-2.35997 6.64203,1.8697 16.75859,8.22019 27.04808,16.97894 48.35092,26.04223 77.01113,32.76438 24.53261,5.75403 47.00397,9.22674 76.80276,11.54557 11.34334,0.88269 23.74845,1.59818 37.73323,2.20866 90.33202,3.94327 265.98467,-78.73507 269.95452,-22.32175 1.61677,22.97497 7.74192,22.04884 5.77317,47.20521 -2.74239,35.0418 0.42791,42.78181 -2.16936,62.90573 -5.34853,41.4409 -14.04735,79.19351 -28.22705,122.50437 -9.11345,27.8364 -15.11245,43.09773 -18.34523,46.66991 -3.48162,3.84715 -34.19755,8.07246 -42.91402,5.90332 z m -84.79194,-155.6528 c 10.49271,-4.63999 24.22051,-9.82212 30.50623,-11.51582 15.11376,-4.07244 17.85714,-5.31125 17.85714,-8.06367 0,-12.86863 -30.27803,-25.35591 -55,-22.68312 -20.51874,2.21835 -36.28088,15.06395 -38.48098,31.36065 -1.20693,8.94011 1.73514,15.1935 8.8344,18.77756 7.79868,3.93715 11.27821,3.1819 36.28321,-7.8756 z m -151.01507,0.47487 c 6.54613,-3.10634 11.38153,-12.15217 10.11233,-18.91762 -1.33253,-7.10296 -4.27063,-12.60166 -11.16285,-20.89142 -6.71754,-8.07967 -7.75052,-7.95125 14.79795,-1.83968 20.21017,5.47779 31.81977,7.0675 38.49228,5.27078 10.27129,-2.76577 9.15557,-6.43183 -4.03908,-13.27188 -28.33347,-14.68791 -89.99911,-27.60699 -114.0152,-23.8864 -12.96465,2.00849 -26.60085,8.67315 -30.43333,14.87423 -3.20717,5.18931 -3.90066,10.85659 -1.3285,10.85659 0.88912,0 10.37126,-2.32136 21.07143,-5.15857 22.24541,-5.89851 33.88928,-6.53266 46.83133,-2.55053 l 8.3378,2.56545 -13.8321,0.97481 c -7.60765,0.53614 -18.2534,2.31773 -23.65721,3.95909 -15.27889,4.64081 -26.65006,14.37494 -24.21261,20.72684 0.46886,1.22183 7.75292,4.29321 17.10686,7.21325 8.95968,2.79696 21.37318,7.43346 27.58554,10.30333 12.46454,5.75814 28.79574,11.88931 31.79362,11.9362 1.05982,0.0166 4.00811,-0.95744 6.55174,-2.16447 z m 240.7367,-29.35235 c 7.8557,-1.68475 9.39987,-4.60272 4.69091,-8.86427 -7.0276,-6.35989 -39.40324,-17.65041 -69.24433,-24.14791 -11.77241,-2.56329 -19.30742,-3.20286 -38.23341,-3.24523 -21.1998,-0.0475 -24.23303,0.25645 -30.14704,3.02067 -12.26036,5.73053 -21.37775,16.68747 -17.28852,20.77671 0.773,0.77299 9.40986,-0.74978 21.45029,-3.78192 27.80551,-7.00227 34.65737,-6.93415 58.90971,0.58564 61.1114,18.94847 57.88403,18.22521 69.86239,15.65631 z"
       id="path3250"
       inkscape:connector-curvature="0"
       sodipodi:nodetypes="cssscssscccsssssssssssssscsssssssccsssssssssscssssscsccssssss" />
    <path
       style="fill:#e9c6af"
       d="m 353.98771,698.75363 c -13.53949,-3.0343 -36.69527,-12.2125 -50.09181,-19.85477 -17.78702,-10.14689 -31.6488,-21.19987 -50.92879,-40.60912 -18.4965,-18.62052 -29.89437,-32.62167 -44.05831,-54.12125 -13.32914,-20.23242 -34.37146,-59.47377 -32.75715,-61.08808 0.28713,-0.28713 4.31542,2.71495 8.95175,6.67129 17.95363,15.32043 37.48744,26.198 55.04144,30.65029 7.07495,1.79445 14.00253,2.22733 29.18999,1.82396 l 19.91347,-0.52888 13.3945,17.14286 c 16.47398,21.0841 23.01835,27.90061 33.60332,35.0007 12.6938,8.51463 22.11653,11.43405 40.9633,12.69157 18.58127,1.2398 41.8615,-0.1572 42.66246,-2.56008 0.2894,-0.86821 1.03236,-1.26573 1.65101,-0.88338 1.03752,0.64122 38.96656,-47.90435 49.39096,-63.21573 0.14809,-0.21751 7.59129,-1.03546 16.54043,-1.81766 10.61646,-0.92792 27.84311,-4.19543 49.56884,-9.40209 18.31372,-4.38895 33.63329,-7.64429 34.04349,-7.23409 0.93226,0.93225 -10.73267,24.21634 -21.60992,43.13504 -20.00461,34.79391 -47.07931,65.60319 -73.24435,83.34742 -16.79729,11.39134 -44.85346,24.98857 -59.62973,28.89913 -15.3686,4.06732 -48.5418,5.10228 -62.5949,1.95287 z"
       id="path3252"
       inkscape:connector-curvature="0"
       sodipodi:nodetypes="sssssssscsssssssssssss" />
    <path
       style="fill:#e9c6af"
       d="m 372.79937,567.94299 c -14.98218,-1.32695 -41.32309,-7.638 -54.50174,-13.05814 l -8.28498,-3.40746 5.93151,-1.77712 c 5.46164,-1.63635 36.59575,-14.96717 48.63282,-20.82332 l 5.13722,-2.49931 19.86278,8.91509 c 10.92452,4.90331 28.21991,11.68023 38.4342,15.05984 l 18.57143,6.14474 -6.59015,2.93736 c -16.43209,7.32413 -42.82703,10.66638 -67.19309,8.50832 z"
       id="path3254"
       inkscape:connector-curvature="0" />
    <path
       style="fill:#008080"
       d="m 155.7143,760.9336 c 28.83626,-28.98528 92.57374,-39.25979 122.65343,-23.88714 35.43736,18.11077 38.56896,65.168 93.04466,62.16507 51.66709,-2.8481 72.72272,-51.71017 132.39038,-66.00767 36.97545,-8.86002 116.7206,5.78165 137.62582,24.8726 24.23489,22.13165 20.51475,62.4571 20.57779,99.99424 0.0613,36.53326 13.67951,97.28996 -17.72065,92.86291 -71.37668,-10.06326 -160.94997,25.8691 -255.71412,28.5572 -90.75478,2.57437 -177.89798,-4.43397 -244.28588,-28.5572 -30.19805,-10.973 -12.17601,-64.12093 -8.0018,-101.83981 4.06873,-36.76571 1.96013,-70.59968 19.43037,-88.1602 z"
       id="rect3256"
       inkscape:connector-curvature="0"
       sodipodi:nodetypes="sssssssssss" />
    <path
       style="fill:#e9c6af"
       d="m 310.08027,675.21936 c 0,0 108.36487,-32.23441 128.04345,5.71428 8.52907,16.44769 -20.04358,51.63778 -19.44486,67.14282 0.51204,13.26011 41.30194,24.78994 29.44486,41.42861 -20.57487,28.87208 -114.76277,20.38115 -136.04616,-2.85714 -12.58614,-13.74219 21.15258,-29.42176 24.01154,-45.71432 2.83603,-16.16183 -26.00883,-65.71425 -26.00883,-65.71425 z"
       id="rect3261"
       inkscape:connector-curvature="0"
       sodipodi:nodetypes="csssssc" />
    <path
       style="fill:#008000;stroke:#2b0000;stroke-width:1.05157053;stroke-opacity:1"
       d="m 351.45435,805.24512 65.66273,0 -22.83921,34.78102 15.70195,104.34309 -27.12156,31.6191 -21.41175,-31.6191 15.70196,-105.92406 z"
       id="rect4044"
       inkscape:connector-curvature="0"
       sodipodi:nodetypes="cccccccc" />
  </g>
</svg>
