<?xml version="1.0" encoding="UTF-8" standalone="no"?>
<!-- Created with Inkscape (http://www.inkscape.org/) -->

<svg
   xmlns:dc="http://purl.org/dc/elements/1.1/"
   xmlns:cc="http://creativecommons.org/ns#"
   xmlns:rdf="http://www.w3.org/1999/02/22-rdf-syntax-ns#"
   xmlns:svg="http://www.w3.org/2000/svg"
   xmlns="http://www.w3.org/2000/svg"
   xmlns:sodipodi="http://sodipodi.sourceforge.net/DTD/sodipodi-0.dtd"
   xmlns:inkscape="http://www.inkscape.org/namespaces/inkscape"
   width="210mm"
   height="297mm"
   id="svg4059"
   version="1.1"
   inkscape:version="0.48.4 r9939"
   sodipodi:docname="Nowy dokument 12">
  <defs
     id="defs3">
    <inkscape:path-effect
       effect="spiro"
       id="path-effect4651"
       is_visible="true" />
    <inkscape:path-effect
       effect="spiro"
       id="path-effect4647"
       is_visible="true" />
    <inkscape:path-effect
       effect="spiro"
       id="path-effect4611"
       is_visible="true" />
    <inkscape:path-effect
       effect="spiro"
       id="path-effect4607"
       is_visible="true" />
  </defs>
  <sodipodi:namedview
     inkscape:document-units="mm"
     id="base"
     pagecolor="#ffffff"
     bordercolor="#666666"
     borderopacity="1.0"
     inkscape:pageopacity="0.0"
     inkscape:pageshadow="2"
     inkscape:zoom="0.98994949"
     inkscape:cx="200.70463"
     inkscape:cy="619.19847"
     inkscape:current-layer="layer1"
     showgrid="false"
     inkscape:window-width="1366"
     inkscape:window-height="716"
     inkscape:window-x="-8"
     inkscape:window-y="-8"
     inkscape:window-maximized="1">
    <inkscape:grid
       type="xygrid"
       id="grid4585" />
  </sodipodi:namedview>
  <metadata
     id="metadata4">
    <rdf:RDF>
      <cc:Work
         rdf:about="">
        <dc:format>image/svg+xml</dc:format>
        <dc:type
           rdf:resource="http://purl.org/dc/dcmitype/StillImage" />
        <dc:title></dc:title>
      </cc:Work>
    </rdf:RDF>
  </metadata>
  <g
     inkscape:label="Layer 1"
     inkscape:groupmode="layer"
     id="layer1">
    <path
       style="fill:#ff2a2a;stroke:#2b0000;stroke-width:0.04707542000000000;stroke-opacity:1"
       d="M 3.5806176,849.8322 355.20087,92.223617 735.85131,849.8322 c 9.5e-4,0.002 0.004,0.002 0.004,0.003 l 0,9.06773 c 0,0.002 -0.002,0.003 -0.004,0.003 l -732.2706924,0 c -0.00247,0 -0.0044,-0.002 -0.0044,-0.003 l 0,-9.06773 c 0,-0.002 0.00193,-0.003 0.0044,-0.003 z"
       id="rect4065"
       inkscape:connector-curvature="0"
       sodipodi:nodetypes="scssssssss" />
    <text
       xml:space="preserve"
       style="font-size:40px;font-style:normal;font-weight:normal;line-height:125%;letter-spacing:0px;word-spacing:0px;fill:#f2f2f2;fill-opacity:1;stroke:none;font-family:Sans"
       x="232.3351"
       y="292.72745"
       id="text4613"
       sodipodi:linespacing="125%"><tspan
         sodipodi:role="line"
         id="tspan4615"
         x="232.3351"
         y="292.72745">Testy akceptacyjne</tspan></text>
    <text
       xml:space="preserve"
       style="font-size:40px;font-style:normal;font-weight:normal;line-height:125%;letter-spacing:0px;word-spacing:0px;fill:#000000;fill-opacity:1;stroke:none;font-family:Sans"
       x="293.95438"
       y="223.02692"
       id="text4617"
       sodipodi:linespacing="125%"><tspan
         sodipodi:role="line"
         id="tspan4619"
         x="293.95438"
         y="223.02692">Unit testy</tspan></text>
    <text
       xml:space="preserve"
       style="font-size:40px;font-style:normal;font-weight:normal;line-height:125%;letter-spacing:0px;word-spacing:0px;fill:#ffffff;fill-opacity:1;stroke:none;font-family:Sans"
       x="268.70056"
       y="354.3468"
       id="text4621"
       sodipodi:linespacing="125%"><tspan
         sodipodi:role="line"
         id="tspan4623"
         x="268.70056"
         y="354.3468">Testy GUI</tspan></text>
    <path
       style="fill:none;stroke:#000000;stroke-width:1px;stroke-linecap:butt;stroke-linejoin:miter;stroke-opacity:1"
       d="m 76.771593,687.69711 579.827557,3.03046"
       id="path4645"
       inkscape:path-effect="#path-effect4647"
       inkscape:original-d="m 76.771593,687.69711 579.827557,3.03046"
       inkscape:connector-curvature="0" />
    <path
       style="fill:none;stroke:#000000;stroke-width:1px;stroke-linecap:butt;stroke-linejoin:miter;stroke-opacity:1"
       d="m 210.11173,403.84425 304.05592,3.03046"
       id="path4649"
       inkscape:path-effect="#path-effect4651"
       inkscape:original-d="m 210.11173,403.84425 304.05592,3.03046"
       inkscape:connector-curvature="0" />
    <path
       style="fill:#005500;stroke:#ffffff;stroke-width:1.02578187;stroke-opacity:1"
       d="m 3.5936655,854.5619 c 0,-3.96235 5.6459059,-17.18475 36.9776875,-86.5997 20.337727,-45.05784 37.295986,-82.25362 37.685019,-82.65727 0.389033,-0.40367 117.232838,-0.0632 259.652908,0.75656 142.42004,0.81976 272.146,1.51308 288.27988,1.54069 l 29.33431,0.0503 39.74388,81.3719 c 34.04112,69.69604 39.73795,82.00628 39.70248,85.79293 l -0.0415,4.421 -365.66737,0 -365.6673746,0 0,-4.67634 z"
       id="path4667"
       inkscape:connector-curvature="0" />
    <path
       style="fill:#0000ff;stroke:#ffffff;stroke-width:1.01369011;stroke-opacity:1"
       d="M 299.53096,687.0043 C 178.80978,686.33837 79.856774,685.6134 79.635389,685.39327 79.319081,685.07874 209.81498,404.83334 210.69048,403.94698 c 0.12338,-0.12492 62.91133,0.43563 139.52877,1.24567 76.61744,0.81004 145.08268,1.48045 152.14496,1.4898 l 12.84051,0.017 53.67119,106.31723 c 29.51915,58.47449 61.65659,121.88603 71.41655,140.91453 l 17.74537,34.5973 -69.50692,-0.15672 c -38.22879,-0.0862 -168.27878,-0.70156 -288.99995,-1.36749 l 0,0 z"
       id="path4669"
       inkscape:connector-curvature="0" />
  </g>
</svg>
